. 
  
http://www.torrenting.com/        :     Greatest Movie Tracker on The Net!!!
 
http://www.Torrenting.com          :     Once & For all ;)


               www . Torrenting . Com 

(((((((((((((= Enjoy No RAR releases =))))))))))))))))))))


...................................NFO:....................................

.                                                                                                     
       
     
     
       
       
     
     
                                         
                                         
                EXVID                    
                                         
         
                                         
         Filled the Archives             
                                         
         
                                         
                With:                    
                                         
         
                                         
                                    
     E240                           
                                    
     SP               (C) 2009      
                                         
     
     
     
                                                                                  
                                                                                   
              Fail.Safe.2000.iNTERNAL.DVDRip.XviD-EXViDiNT                          
                                                                                   
                                                                                  
     
                                                                                               
EXViD aims to iNTERNAL those releases which have been lost in the archives.
EXViD aims to PRE non-internal releases which have poor sources and are likely skipped by others. 
http://www.imdb.com/title/tt0235376/
Subtitles: EN, FR, IT, NL, AR, ES, PT, DE, RO, BG, EN, IT
Date: 2011.09

Director: Stephen Frears

Genre: Drama | Thriller | War

Plot:
Cold War tensions climb to a fever pitch when a U.S. bomber is accidentally ordered to drop a
nuclear warhead on Moscow.

Cast:
Walter Cronkite 	 ... 	 Himself - Host
Richard Dreyfuss 	 ... 	 President
Noah Wyle 	 ... 	 Buck
Brian Dennehy 	 ... 	 Gen. Bogan
Sam Elliott 	 ... 	 Congressman Raskob
James Cromwell 	 ... 	 Gordon Knapp
John Diehl 	 ... 	 Col. Cascio
Hank Azaria 	 ... 	 Prof. Groeteschele
Norman Lloyd 	 ... 	 Defense Secretary Swenson
Bill Smitrovich 	 ... 	 Gen. Stark (as William Smitrovich)
Don Cheadle 	 ... 	 Lt. Jimmy Pierce
George Clooney 	 ... 	 Col. Jack Grady
Harvey Keitel 	 ... 	 Brig. Gen. Warren Black
Doris Belack 	 ... 	 Mrs. Johnson
Grant Heslov 	 ... 	 Jimmy

Stats:
Format                           : AVI
Format/Info                      : Audio Video Interleave
File size                        : 700 MiB
Duration                         : 1h 24mn
Overall bit rate                 : 1 160 Kbps
Writing application              : Nandub v1.0rc2
Writing library                  : Nandub build 1852/release

Video
ID                               : 0
Format                           : MPEG-4 Visual
Format profile                   : Advanced Simple@L5
Format settings, BVOP            : 1
Format settings, QPel            : No
Format settings, GMC             : No warppoints
Format settings, Matrix          : Default (H.263)
Codec ID                         : XVID
Codec ID/Hint                    : XviD
Duration                         : 1h 24mn
Bit rate                         : 1 025 Kbps
Width                            : 624 pixels
Height                           : 352 pixels
Display aspect ratio             : 16:9
Frame rate                       : 25.000 fps
Color space                      : YUV
Chroma subsampling               : 4:2:0
Bit depth                        : 8 bits
Scan type                        : Progressive
Compression mode                 : Lossy
Bits/(Pixel*Frame)               : 0.187
Stream size                      : 619 MiB (88%)
Writing library                  : XviD 64

Audio
ID                               : 1
Format                           : MPEG Audio
Format version                   : Version 1
Format profile                   : Layer 3
Mode                             : Joint stereo
Mode extension                   : MS Stereo
Codec ID                         : 55
Codec ID/Hint                    : MP3
Duration                         : 1h 24mn
Bit rate mode                    : Variable
Bit rate                         : 128 Kbps
Channel(s)                       : 2 channels
Sampling rate                    : 48.0 KHz
Compression mode                 : Lossy
Stream size                      : 73.8 MiB (11%)
Alignment                        : Aligned on interleaves
Interleave, duration             : 24 ms (0.60 video frame)
Interleave, preload duration     : 426 ms
Writing library                  : LAME3.98r
Encoding settings                : -m j -V 4 -q 3 -lowpass 17 --abr 128




Release notes:
There was already an int by EwDp, but it has bad.ivtc as you can see in the included sample.

enjoy!

Looking for:
75TB+ Archives
DUTCH/FLEMiSH Archives
                                                                                                    
Greets: CRBS EPiSODE FiCO FLS iLS KLASSiGER LiPSYNC MADE NODLABS RUNNER SPRiNTER      
   

                                                                    ASCII DONE BY XX^NFO 2oo9